<svg width="532" height="658" viewBox="0 0 532 658" fill="none" xmlns="http://www.w3.org/2000/svg">
<g opacity="0.65">
<rect opacity="0.45" x="160.393" y="0.00390625" width="1.88675" height="657" fill="white"/>
<rect opacity="0.45" x="44.3579" y="0.00390625" width="1.88675" height="657" fill="white"/>
<rect opacity="0.45" x="0.0200195" y="241.432" width="1.58313" height="531.119" transform="rotate(-90 0.0200195 241.432)" fill="white"/>
<rect opacity="0.45" x="0.0200195" y="144.859" width="1.58313" height="531.119" transform="rotate(-90 0.0200195 144.859)" fill="white"/>
<rect opacity="0.45" x="0.0200195" y="48.2881" width="1.58313" height="531.119" transform="rotate(-90 0.0200195 48.2881)" fill="white"/>
<rect opacity="0.45" x="0.0200195" y="339.586" width="1.58313" height="531.119" transform="rotate(-90 0.0200195 339.586)" fill="white"/>
<rect opacity="0.45" x="0.0200195" y="436.157" width="1.58313" height="531.119" transform="rotate(-90 0.0200195 436.157)" fill="white"/>
<rect opacity="0.45" x="0.0200195" y="533.521" width="1.58313" height="531.119" transform="rotate(-90 0.0200195 533.521)" fill="white"/>
<rect opacity="0.45" x="0.0200195" y="630.092" width="1.58313" height="531.119" transform="rotate(-90 0.0200195 630.092)" fill="white"/>
<rect opacity="0.45" x="276.428" y="0.00390625" width="1.88675" height="657" fill="white"/>
<rect opacity="0.45" x="392.463" y="0.00390625" width="1.88675" height="657" fill="white"/>
<rect opacity="0.45" x="506.612" y="0.00390625" width="1.88675" height="657" fill="white"/>
</g>
</svg>
